<svg xmlns="http://www.w3.org/2000/svg" width="1em" height="1em" viewBox="0 0 72 22" fill="none" class="MuiSvgIcon-root MuiSvgIcon-fontSizeMedium css-1xqkg58" focusable="false" aria-hidden="true" data-sentry-element="SvgIcon" data-sentry-component="BrandingLogoIcon" data-sentry-source-file="BrandingLogoIcon.tsx"><path d="M39.154 21.887a2.339 2.339 0 1 0-2.34-2.338 2.339 2.339 0 0 0 2.34 2.338Z" fill="#000" fill-opacity="0.6"></path><path d="M64.027 21.392c-8.166 2.1-15.42-5.149-13.318-13.308A10.612 10.612 0 0 1 58.313.483C66.48-1.62 73.738 5.63 71.632 13.79a10.608 10.608 0 0 1-7.607 7.598l.002.003Zm-.92-16.011a5.9 5.9 0 0 0-7.496 7.493 5.647 5.647 0 0 0 3.624 3.622 5.902 5.902 0 0 0 7.5-7.491 5.654 5.654 0 0 0-3.627-3.624ZM48.302 19.297V2.608c0-1.73-1.776-3.046-3.605-2.226-.836.374-1.35 1.235-1.35 2.149v16.843c0 .916.512 1.774 1.35 2.149 1.83.82 3.605-.496 3.605-2.226Zm-32.626-6.014H5.143a6.17 6.17 0 0 0 5.698 3.818h4.836a2.34 2.34 0 0 1 2.34 2.338 2.34 2.34 0 0 1-2.34 2.338H10.84C4.862 21.777 0 16.917 0 10.945 0 4.975 4.862.113 10.84.113h4.837a2.34 2.34 0 0 1 2.34 2.338 2.34 2.34 0 0 1-2.34 2.338H10.84a6.17 6.17 0 0 0-5.698 3.818h10.532a2.34 2.34 0 0 1 2.34 2.338 2.34 2.34 0 0 1-2.34 2.338ZM39.026.223a10.83 10.83 0 0 0-8.313 4.047A10.825 10.825 0 0 0 22.317.113C21.105.1 20.015.948 19.863 2.15a2.34 2.34 0 0 0 2.321 2.64 6.165 6.165 0 0 1 6.013 4.827c.099.447.12.905.117 1.363v.012a6.054 6.054 0 0 1-.128 1.33 6.169 6.169 0 0 1-5.941 4.78c-1.198.011-2.253.876-2.387 2.066a2.34 2.34 0 0 0 2.324 2.61 10.83 10.83 0 0 0 8.442-4.048 10.884 10.884 0 0 0 4.635 3.433l-.002-.008a4.216 4.216 0 0 1-.319-1.603c0-1.109.45-2.191 1.233-2.977.031-.028.061-.056.094-.084a6.177 6.177 0 0 1-3.121-4.073 5.702 5.702 0 0 1-.129-1.18V11.1c0-.552.045-1.106.187-1.64A6.168 6.168 0 0 1 39.15 4.9a2.34 2.34 0 0 0 2.321-2.64c-.15-1.2-1.24-2.05-2.45-2.037h.005Z" fill="#000" fill-opacity="0.75"></path></svg>