
        <svg xmlns="http://www.w3.org/2000/svg" xmlns:xlink="http://www.w3.org/1999/xlink" version="1.1" width="3171.4285714285716" height="2613.574050764029" viewBox="0 0 3171.4285714285716 2613.574050764029">
			
			<g transform="scale(8.571428571428571) translate(10, 10)">
				<defs id="SvgjsDefs3012"><linearGradient id="SvgjsLinearGradient3019"><stop id="SvgjsStop3020" stop-color="#00ff8f" offset="0"/><stop id="SvgjsStop3021" stop-color="#00a1ff" offset="1"/></linearGradient></defs><g id="SvgjsG3013" featureKey="HKaMnE-0" transform="matrix(3.240740740740741,0,0,3.240740740740741,71.51851851851852,-6.481481481481482)" fill="#000"><g xmlns="http://www.w3.org/2000/svg"><path d="M61,32H54.858a4,4,0,1,0,0,2H60v7H43V32H41v9H37a1,1,0,0,0-.9,1.428L44.42,60H35.6L26.656,43H32a1,1,0,0,0,1-1V36.858a4,4,0,1,0-2,0V41H22V30.414L28.414,24h9.728a4,4,0,1,0,0-2H28a1,1,0,0,0-.707.293l-7,7A1,1,0,0,0,20,30V41H13V36H11v5H9.414L4,35.586V30H8.142a4,4,0,1,0,0-2H3a1,1,0,0,0-1,1v7a1,1,0,0,0,.293.707l6,6A1,1,0,0,0,9,43H24.4l9.719,18.466A1,1,0,0,0,35,62H46a1,1,0,0,0,.9-1.428L44.264,55H55a1,1,0,0,0,.707-.293l6-6A1,1,0,0,0,62,48V46a1,1,0,0,0-1-1H43v2H60v.586L58.586,49H45v2H56.586l-2,2H43.317L38.58,43H61a1,1,0,0,0,1-1V33A1,1,0,0,0,61,32ZM51,35a2,2,0,1,1,2-2A2,2,0,0,1,51,35ZM30,33a2,2,0,1,1,2,2A2,2,0,0,1,30,33ZM42,21a2,2,0,1,1-2,2A2,2,0,0,1,42,21ZM12,27a2,2,0,1,1-2,2A2,2,0,0,1,12,27Z"/><path d="M4,19h7.586l4.707,4.707,1.414-1.414-5-5A1,1,0,0,0,12,17H4V14.414L14.414,4H17V8.142a4,4,0,1,0,2,0V4H31v6.142a4,4,0,1,0,2,0V3a1,1,0,0,0-1-1H14a1,1,0,0,0-.707.293l-11,11A1,1,0,0,0,2,14V26H4Zm16-7a2,2,0,1,1-2-2A2,2,0,0,1,20,12Zm14,2a2,2,0,1,1-2-2A2,2,0,0,1,34,14Z"/><path d="M50.707,2.293A1,1,0,0,0,50,2H35V4H45V8.142a4,4,0,1,0,2,0V4h2.586L60,14.414V22H51v2h9v6h2V14a1,1,0,0,0-.293-.707ZM48,12a2,2,0,1,1-2-2A2,2,0,0,1,48,12Z"/></g></g><g id="SvgjsG3014" featureKey="J3GnXt-0" transform="matrix(2.773375829024166,0,0,2.773375829024166,-5.047543823681171,199.4120438270062)" fill="#000"><path d="M3.76 5.640000000000001 l0 14.36 l-1.94 0 l0 -14.36 l1.94 0 z M16.6 17.240000000000002 l0 -11.6 l1.88 0 l0 14.36 l-2.18 0 l-7.3 -11.6 l-0.04 0 l0 11.6 l-1.88 0 l0 -14.36 l2.3 0 l7.18 11.6 l0.04 0 z M31.04 17.240000000000002 l0 -11.6 l1.88 0 l0 14.36 l-2.18 0 l-7.3 -11.6 l-0.04 0 l0 11.6 l-1.88 0 l0 -14.36 l2.3 0 l7.18 11.6 l0.04 0 z M47.22 12.82 c0 -3.38 -1.88 -5.84 -5 -5.84 s-5 2.46 -5 5.84 s1.88 5.84 5 5.84 s5 -2.46 5 -5.84 z M49.22 12.82 c0 3.1 -1.64 7.56 -7 7.56 s-7 -4.46 -7 -7.56 s1.64 -7.56 7 -7.56 s7 4.46 7 7.56 z M56.7 17.88 l4.06 -12.24 l2.18 0 l-5.24 14.36 l-2.06 0 l-5.24 -14.36 l2.16 0 l4.1 12.24 l0.04 0 z M72.88 15.82 l-5.76 0 l-1.5 4.18 l-2 0 l5.4 -14.36 l2.2 0 l5.2 14.36 l-2.12 0 z M67.72 14.1 l4.46 0 l-2.12 -6.32 l-0.04 0 z M76.96000000000001 7.359999999999999 l0 -1.72 l11.66 0 l0 1.72 l-4.86 0 l0 12.64 l-1.94 0 l0 -12.64 l-4.86 0 z M101.22 18.28 l0 1.72 l-10.6 0 l0 -14.36 l10.46 0 l0 1.72 l-8.52 0 l0 4.4 l7.86 0 l0 1.72 l-7.86 0 l0 4.8 l8.66 0 z M110.16000000000001 12.64 l5.04 7.36 l-2.4 0 l-3.86 -5.9 l-3.98 5.9 l-2.34 0 l5.14 -7.36 l-4.82 -7 l2.44 0 l3.64 5.5 l3.64 -5.5 l2.32 0 z M119.24000000000001 7.300000000000001 l0 4.98 l3.86 0 c1.74 0 2.92 -0.64 2.92 -2.58 c0 -1.82 -1.24 -2.4 -2.84 -2.4 l-3.94 0 z M119.24000000000001 13.940000000000001 l0 6.06 l-1.94 0 l0 -14.36 l6.46 0 c2.66 0 4.26 1.72 4.26 4.04 c0 2 -1.14 4.26 -4.26 4.26 l-4.52 0 z"/></g><g id="SvgjsG3015" featureKey="sloganFeature-0" transform="matrix(0.5897468316270815,0,0,0.5897468316270815,33.92666080580856,272.8979318118724)" fill="#000"><path d="M3.76 5.640000000000001 l0 14.36 l-1.94 0 l0 -14.36 l1.94 0 z M19.932000000000002 17.240000000000002 l0 -11.6 l1.88 0 l0 14.36 l-2.18 0 l-7.3 -11.6 l-0.04 0 l0 11.6 l-1.88 0 l0 -14.36 l2.3 0 l7.18 11.6 l0.04 0 z M37.704 17.240000000000002 l0 -11.6 l1.88 0 l0 14.36 l-2.18 0 l-7.3 -11.6 l-0.04 0 l0 11.6 l-1.88 0 l0 -14.36 l2.3 0 l7.18 11.6 l0.04 0 z M57.216 12.82 c0 -3.38 -1.88 -5.84 -5 -5.84 s-5 2.46 -5 5.84 s1.88 5.84 5 5.84 s5 -2.46 5 -5.84 z M59.216 12.82 c0 3.1 -1.64 7.56 -7 7.56 s-7 -4.46 -7 -7.56 s1.64 -7.56 7 -7.56 s7 4.46 7 7.56 z M70.028 17.88 l4.06 -12.24 l2.18 0 l-5.24 14.36 l-2.06 0 l-5.24 -14.36 l2.16 0 l4.1 12.24 l0.04 0 z M89.53999999999999 15.82 l-5.76 0 l-1.5 4.18 l-2 0 l5.4 -14.36 l2.2 0 l5.2 14.36 l-2.12 0 z M84.38 14.1 l4.46 0 l-2.12 -6.32 l-0.04 0 z M96.952 7.359999999999999 l0 -1.72 l11.66 0 l0 1.72 l-4.86 0 l0 12.64 l-1.94 0 l0 -12.64 l-4.86 0 z M124.54400000000001 18.28 l0 1.72 l-10.6 0 l0 -14.36 l10.46 0 l0 1.72 l-8.52 0 l0 4.4 l7.86 0 l0 1.72 l-7.86 0 l0 4.8 l8.66 0 z M132.716 17.88 l0 2.12 l-2.08 0 l0 -2.12 l2.08 0 z M145.76000000000002 7.359999999999999 l0 -1.72 l11.66 0 l0 1.72 l-4.86 0 l0 12.64 l-1.94 0 l0 -12.64 l-4.86 0 z M164.732 13.84 l0 6.16 l-1.94 0 l0 -14.36 l6.64 0 c2.36 0 4.72 0.82 4.72 3.86 c0 2.12 -1.08 2.9 -2 3.44 c0.82 0.34 1.64 0.7 1.72 2.7 l0.12 2.6 c0.02 0.8 0.12 1.1 0.72 1.44 l0 0.32 l-2.38 0 c-0.28 -0.88 -0.34 -3.06 -0.34 -3.6 c0 -1.18 -0.24 -2.56 -2.56 -2.56 l-4.7 0 z M164.732 7.300000000000001 l0 4.88 l4.5 0 c1.42 0 2.92 -0.36 2.92 -2.48 c0 -2.22 -1.62 -2.4 -2.58 -2.4 l-4.84 0 z M188.344 15.82 l-5.76 0 l-1.5 4.18 l-2 0 l5.4 -14.36 l2.2 0 l5.2 14.36 l-2.12 0 z M183.184 14.1 l4.46 0 l-2.12 -6.32 l-0.04 0 z M206.516 17.240000000000002 l0 -11.6 l1.88 0 l0 14.36 l-2.18 0 l-7.3 -11.6 l-0.04 0 l0 11.6 l-1.88 0 l0 -14.36 l2.3 0 l7.18 11.6 l0.04 0 z M225.248 9.84 l-1.82 0 c-0.1 -2.22 -1.94 -2.92 -3.56 -2.92 c-1.22 0 -3.28 0.34 -3.28 2.52 c0 1.22 0.86 1.62 1.7 1.82 l4.1 0.94 c1.86 0.44 3.26 1.56 3.26 3.84 c0 3.4 -3.16 4.34 -5.62 4.34 c-2.66 0 -3.7 -0.8 -4.34 -1.38 c-1.22 -1.1 -1.46 -2.3 -1.46 -3.64 l1.82 0 c0 2.6 2.12 3.36 3.96 3.36 c1.4 0 3.76 -0.36 3.76 -2.42 c0 -1.5 -0.7 -1.98 -3.06 -2.54 l-2.94 -0.68 c-0.94 -0.22 -3.06 -0.88 -3.06 -3.38 c0 -2.24 1.46 -4.44 4.94 -4.44 c5.02 0 5.52 3 5.6 4.58 z M233.57999999999998 13.48 l0 6.52 l-1.94 0 l0 -14.36 l9.94 0 l0 1.72 l-8 0 l0 4.4 l7.04 0 l0 1.72 l-7.04 0 z M258.25199999999995 12.82 c0 -3.38 -1.88 -5.84 -5 -5.84 s-5 2.46 -5 5.84 s1.88 5.84 5 5.84 s5 -2.46 5 -5.84 z M260.25199999999995 12.82 c0 3.1 -1.64 7.56 -7 7.56 s-7 -4.46 -7 -7.56 s1.64 -7.56 7 -7.56 s7 4.46 7 7.56 z M268.06399999999996 13.84 l0 6.16 l-1.94 0 l0 -14.36 l6.64 0 c2.36 0 4.72 0.82 4.72 3.86 c0 2.12 -1.08 2.9 -2 3.44 c0.82 0.34 1.64 0.7 1.72 2.7 l0.12 2.6 c0.02 0.8 0.12 1.1 0.72 1.44 l0 0.32 l-2.38 0 c-0.28 -0.88 -0.34 -3.06 -0.34 -3.6 c0 -1.18 -0.24 -2.56 -2.56 -2.56 l-4.7 0 z M268.06399999999996 7.300000000000001 l0 4.88 l4.5 0 c1.42 0 2.92 -0.36 2.92 -2.48 c0 -2.22 -1.62 -2.4 -2.58 -2.4 l-4.84 0 z M297.356 20 l-1.88 0 l0 -8.48 c0 -0.42 0.04 -2.24 0.04 -3.58 l-0.04 0 l-4.04 12.06 l-1.92 0 l-4.04 -12.04 l-0.04 0 c0 1.32 0.04 3.14 0.04 3.56 l0 8.48 l-1.88 0 l0 -14.36 l2.78 0 l4.1 12.14 l0.04 0 l4.08 -12.14 l2.76 0 l0 14.36 z M305.948 17.88 l0 2.12 l-2.08 0 l0 -2.12 l2.08 0 z M331.032 18.28 l0 1.72 l-10.6 0 l0 -14.36 l10.46 0 l0 1.72 l-8.52 0 l0 4.4 l7.86 0 l0 1.72 l-7.86 0 l0 4.8 l8.66 0 z M343.30400000000003 12.64 l5.04 7.36 l-2.4 0 l-3.86 -5.9 l-3.98 5.9 l-2.34 0 l5.14 -7.36 l-4.82 -7 l2.44 0 l3.64 5.5 l3.64 -5.5 l2.32 0 z M355.71600000000007 7.300000000000001 l0 4.98 l3.86 0 c1.74 0 2.92 -0.64 2.92 -2.58 c0 -1.82 -1.24 -2.4 -2.84 -2.4 l-3.94 0 z M355.71600000000007 13.940000000000001 l0 6.06 l-1.94 0 l0 -14.36 l6.46 0 c2.66 0 4.26 1.72 4.26 4.04 c0 2 -1.14 4.26 -4.26 4.26 l-4.52 0 z M381.04800000000006 18.28 l0 1.72 l-10.6 0 l0 -14.36 l10.46 0 l0 1.72 l-8.52 0 l0 4.4 l7.86 0 l0 1.72 l-7.86 0 l0 4.8 l8.66 0 z M389.1000000000001 13.84 l0 6.16 l-1.94 0 l0 -14.36 l6.64 0 c2.36 0 4.72 0.82 4.72 3.86 c0 2.12 -1.08 2.9 -2 3.44 c0.82 0.34 1.64 0.7 1.72 2.7 l0.12 2.6 c0.02 0.8 0.12 1.1 0.72 1.44 l0 0.32 l-2.38 0 c-0.28 -0.88 -0.34 -3.06 -0.34 -3.6 c0 -1.18 -0.24 -2.56 -2.56 -2.56 l-4.7 0 z M389.1000000000001 7.300000000000001 l0 4.88 l4.5 0 c1.42 0 2.92 -0.36 2.92 -2.48 c0 -2.22 -1.62 -2.4 -2.58 -2.4 l-4.84 0 z M406.9320000000001 5.640000000000001 l0 14.36 l-1.94 0 l0 -14.36 l1.94 0 z M424.38400000000007 18.28 l0 1.72 l-10.6 0 l0 -14.36 l10.46 0 l0 1.72 l-8.52 0 l0 4.4 l7.86 0 l0 1.72 l-7.86 0 l0 4.8 l8.66 0 z M439.7760000000001 17.240000000000002 l0 -11.6 l1.88 0 l0 14.36 l-2.18 0 l-7.3 -11.6 l-0.04 0 l0 11.6 l-1.88 0 l0 -14.36 l2.3 0 l7.18 11.6 l0.04 0 z M459.9880000000001 9.96 l-1.88 0 c-0.54 -2.52 -2.64 -2.98 -4.02 -2.98 c-2.6 0 -4.7 1.92 -4.7 5.7 c0 3.38 1.2 5.98 4.76 5.98 c1.26 0 3.44 -0.6 4.1 -3.94 l1.88 0 c-0.8 5.42 -5.2 5.66 -6.28 5.66 c-3.26 0 -6.46 -2.12 -6.46 -7.64 c0 -4.42 2.52 -7.48 6.7 -7.48 c3.7 0 5.62 2.3 5.9 4.7 z M476.6000000000001 18.28 l0 1.72 l-10.6 0 l0 -14.36 l10.46 0 l0 1.72 l-8.52 0 l0 4.4 l7.86 0 l0 1.72 l-7.86 0 l0 4.8 l8.66 0 z"/></g>
			</g>
		</svg>
	